<svg xmlns="http://www.w3.org/2000/svg" xmlns:xlink="http://www.w3.org/1999/xlink" width="500" zoomAndPan="magnify" viewBox="0 0 375 374.999991" height="500" preserveAspectRatio="xMidYMid meet" version="1.0"><defs><g/></defs><rect x="-37.5" width="450" fill="#ffffff" y="-37.499999" height="449.999989" fill-opacity="1"/><rect x="-37.5" width="450" fill="#ffffff" y="-37.499999" height="449.999989" fill-opacity="1"/><g fill="#000000" fill-opacity="1"><g transform="translate(77.451814, 233.11954)"><g><path d="M 45.40625 -91.5 L 45.40625 -88.421875 L 34.640625 -88.421875 L 58.8125 -23.75 L 74.3125 -71.796875 C 74.59375 -72.546875 74.894531 -73.617188 75.21875 -75.015625 C 75.539062 -76.410156 75.703125 -77.757812 75.703125 -79.0625 C 75.703125 -82.320312 74.539062 -84.789062 72.21875 -86.46875 C 71.007812 -87.300781 69.632812 -87.878906 68.09375 -88.203125 C 66.5625 -88.535156 65.097656 -88.609375 63.703125 -88.421875 L 63.703125 -91.5 L 92.328125 -91.5 L 92.328125 -88.421875 C 88.984375 -88.234375 86.5625 -87.300781 85.0625 -85.625 C 83.570312 -83.945312 82.457031 -82.316406 81.71875 -80.734375 C 80.789062 -78.878906 80.066406 -77.160156 79.546875 -75.578125 C 79.035156 -73.992188 78.546875 -72.546875 78.078125 -71.234375 L 54.34375 0 L 45.40625 0 L 12.296875 -88.421875 L 1.953125 -88.421875 L 1.953125 -91.5 Z M 45.40625 -91.5 "/></g></g></g><g fill="#000000" fill-opacity="1"><g transform="translate(198.831941, 233.11954)"><g><path d="M 22.078125 -26.8125 L 19.96875 -20.671875 C 19.875 -20.390625 19.710938 -19.851562 19.484375 -19.0625 C 19.253906 -18.269531 19.019531 -17.410156 18.78125 -16.484375 C 18.550781 -15.554688 18.34375 -14.554688 18.15625 -13.484375 C 17.96875 -12.410156 17.875 -11.453125 17.875 -10.609375 C 17.875 -9.210938 18.15625 -8.023438 18.71875 -7.046875 C 19.28125 -6.078125 20.351562 -5.21875 21.9375 -4.46875 C 22.207031 -4.28125 23.019531 -4 24.375 -3.625 C 25.726562 -3.257812 27.847656 -3.078125 30.734375 -3.078125 L 30.734375 0 L 0 0 L 0 -3.078125 C 2.144531 -3.171875 4.171875 -3.585938 6.078125 -4.328125 C 7.984375 -5.078125 9.585938 -6.425781 10.890625 -8.375 C 11.640625 -9.5 12.316406 -10.828125 12.921875 -12.359375 C 13.523438 -13.898438 14.335938 -16.019531 15.359375 -18.71875 L 42.609375 -93.453125 L 50.140625 -93.453125 L 82.6875 -3.078125 L 91.21875 -3.078125 L 91.21875 0 L 48.890625 0 L 48.890625 -3.078125 L 60.0625 -3.078125 L 51.265625 -26.8125 Z M 36.734375 -67.75 L 22.90625 -29.890625 L 50.703125 -29.890625 Z M 36.734375 -67.75 "/></g></g></g><path stroke-linecap="butt" transform="matrix(0.000000001309, -0.75, 0.75, 0.000000001309, 186.749846, 236.468569)" fill="none" stroke-linejoin="miter" d="M 1.499759 1.000206 L 124.671642 1.000205 " stroke="#000000" stroke-width="2" stroke-opacity="1" stroke-miterlimit="4"/><path stroke-linecap="round" transform="matrix(0.000000001309, -0.75, 0.75, 0.000000001309, 186.749846, 236.468569)" fill="none" stroke-linejoin="round" d="M 0.999759 -1.999795 L 0.999759 4.000206 " stroke="#000000" stroke-width="2" stroke-opacity="1" stroke-miterlimit="4"/><path stroke-linecap="round" transform="matrix(0.000000001309, -0.75, 0.75, 0.000000001309, 186.749846, 236.468569)" fill="none" stroke-linejoin="round" d="M 125.171642 -1.999795 L 125.171642 4.000206 " stroke="#000000" stroke-width="2" stroke-opacity="1" stroke-miterlimit="4"/><path fill="#ffffff" d="M 92.59375 175.21875 L 282.398438 175.21875 C 285.6875 175.21875 288.351562 177.882812 288.351562 181.171875 L 288.351562 193.078125 C 288.351562 196.367188 285.6875 199.03125 282.398438 199.03125 L 92.59375 199.03125 C 89.304688 199.03125 86.640625 196.367188 86.640625 193.078125 L 86.640625 181.171875 C 86.640625 177.882812 89.304688 175.21875 92.59375 175.21875 Z M 92.59375 175.21875 " fill-opacity="1" fill-rule="nonzero"/><g fill="#000000" fill-opacity="1"><g transform="translate(94.768226, 192.374987)"><g><path d="M 8.03125 -2.71875 L 2.375 -2.71875 L 1.140625 0 L 0.03125 0 L 4.671875 -10.171875 L 5.734375 -10.171875 L 10.390625 0 L 9.25 0 Z M 7.640625 -3.59375 L 5.203125 -9.046875 L 2.765625 -3.59375 Z M 7.640625 -3.59375 "/></g></g></g><g fill="#000000" fill-opacity="1"><g transform="translate(109.8134, 192.374987)"><g><path d="M 1.65625 -10.171875 L 5.796875 -10.171875 C 6.867188 -10.171875 7.816406 -9.953125 8.640625 -9.515625 C 9.460938 -9.085938 10.101562 -8.488281 10.5625 -7.71875 C 11.019531 -6.945312 11.25 -6.066406 11.25 -5.078125 C 11.25 -4.097656 11.019531 -3.222656 10.5625 -2.453125 C 10.101562 -1.679688 9.460938 -1.078125 8.640625 -0.640625 C 7.816406 -0.210938 6.867188 0 5.796875 0 L 1.65625 0 Z M 5.734375 -0.9375 C 6.628906 -0.9375 7.410156 -1.109375 8.078125 -1.453125 C 8.742188 -1.804688 9.257812 -2.296875 9.625 -2.921875 C 10 -3.546875 10.1875 -4.265625 10.1875 -5.078125 C 10.1875 -5.898438 10 -6.625 9.625 -7.25 C 9.257812 -7.875 8.742188 -8.359375 8.078125 -8.703125 C 7.410156 -9.054688 6.628906 -9.234375 5.734375 -9.234375 L 2.734375 -9.234375 L 2.734375 -0.9375 Z M 5.734375 -0.9375 "/></g></g></g><g fill="#000000" fill-opacity="1"><g transform="translate(126.441201, 192.374987)"><g><path d="M 8.609375 0 L 6.28125 -3.265625 C 6.019531 -3.234375 5.75 -3.21875 5.46875 -3.21875 L 2.734375 -3.21875 L 2.734375 0 L 1.65625 0 L 1.65625 -10.171875 L 5.46875 -10.171875 C 6.757812 -10.171875 7.773438 -9.859375 8.515625 -9.234375 C 9.253906 -8.617188 9.625 -7.769531 9.625 -6.6875 C 9.625 -5.894531 9.421875 -5.222656 9.015625 -4.671875 C 8.609375 -4.117188 8.035156 -3.722656 7.296875 -3.484375 L 9.78125 0 Z M 5.4375 -4.140625 C 6.445312 -4.140625 7.21875 -4.363281 7.75 -4.8125 C 8.28125 -5.257812 8.546875 -5.882812 8.546875 -6.6875 C 8.546875 -7.507812 8.28125 -8.140625 7.75 -8.578125 C 7.21875 -9.015625 6.445312 -9.234375 5.4375 -9.234375 L 2.734375 -9.234375 L 2.734375 -4.140625 Z M 5.4375 -4.140625 "/></g></g></g><g fill="#000000" fill-opacity="1"><g transform="translate(141.573488, 192.374987)"><g><path d="M 1.65625 -10.171875 L 2.734375 -10.171875 L 2.734375 0 L 1.65625 0 Z M 1.65625 -10.171875 "/></g></g></g><g fill="#000000" fill-opacity="1"><g transform="translate(150.593063, 192.374987)"><g><path d="M 8.03125 -2.71875 L 2.375 -2.71875 L 1.140625 0 L 0.03125 0 L 4.671875 -10.171875 L 5.734375 -10.171875 L 10.390625 0 L 9.25 0 Z M 7.640625 -3.59375 L 5.203125 -9.046875 L 2.765625 -3.59375 Z M 6.265625 -12.796875 L 7.640625 -12.796875 L 5.296875 -11 L 4.28125 -11 Z M 6.265625 -12.796875 "/></g></g></g><g fill="#000000" fill-opacity="1"><g transform="translate(165.638238, 192.374987)"><g><path d="M 10.15625 -10.171875 L 10.15625 0 L 9.265625 0 L 2.734375 -8.25 L 2.734375 0 L 1.65625 0 L 1.65625 -10.171875 L 2.546875 -10.171875 L 9.09375 -1.921875 L 9.09375 -10.171875 Z M 10.15625 -10.171875 "/></g></g></g><g fill="#000000" fill-opacity="1"><g transform="translate(182.077279, 192.374987)"><g/></g></g><g fill="#000000" fill-opacity="1"><g transform="translate(190.516066, 192.374987)"><g><path d="M 8.03125 -2.71875 L 2.375 -2.71875 L 1.140625 0 L 0.03125 0 L 4.671875 -10.171875 L 5.734375 -10.171875 L 10.390625 0 L 9.25 0 Z M 7.640625 -3.59375 L 5.203125 -9.046875 L 2.765625 -3.59375 Z M 7.640625 -3.59375 "/></g></g></g><g fill="#000000" fill-opacity="1"><g transform="translate(205.561241, 192.374987)"><g><path d="M 8.609375 0 L 6.28125 -3.265625 C 6.019531 -3.234375 5.75 -3.21875 5.46875 -3.21875 L 2.734375 -3.21875 L 2.734375 0 L 1.65625 0 L 1.65625 -10.171875 L 5.46875 -10.171875 C 6.757812 -10.171875 7.773438 -9.859375 8.515625 -9.234375 C 9.253906 -8.617188 9.625 -7.769531 9.625 -6.6875 C 9.625 -5.894531 9.421875 -5.222656 9.015625 -4.671875 C 8.609375 -4.117188 8.035156 -3.722656 7.296875 -3.484375 L 9.78125 0 Z M 5.4375 -4.140625 C 6.445312 -4.140625 7.21875 -4.363281 7.75 -4.8125 C 8.28125 -5.257812 8.546875 -5.882812 8.546875 -6.6875 C 8.546875 -7.507812 8.28125 -8.140625 7.75 -8.578125 C 7.21875 -9.015625 6.445312 -9.234375 5.4375 -9.234375 L 2.734375 -9.234375 L 2.734375 -4.140625 Z M 5.4375 -4.140625 "/></g></g></g><g fill="#000000" fill-opacity="1"><g transform="translate(220.693534, 192.374987)"><g><path d="M 8.03125 -2.71875 L 2.375 -2.71875 L 1.140625 0 L 0.03125 0 L 4.671875 -10.171875 L 5.734375 -10.171875 L 10.390625 0 L 9.25 0 Z M 7.640625 -3.59375 L 5.203125 -9.046875 L 2.765625 -3.59375 Z M 7.640625 -3.59375 "/></g></g></g><g fill="#000000" fill-opacity="1"><g transform="translate(235.738714, 192.374987)"><g><path d="M 8.828125 -5.078125 L 9.859375 -5.078125 L 9.859375 -1.203125 C 9.378906 -0.785156 8.8125 -0.460938 8.15625 -0.234375 C 7.507812 -0.015625 6.832031 0.09375 6.125 0.09375 C 5.101562 0.09375 4.1875 -0.128906 3.375 -0.578125 C 2.5625 -1.023438 1.921875 -1.644531 1.453125 -2.4375 C 0.984375 -3.226562 0.75 -4.109375 0.75 -5.078125 C 0.75 -6.054688 0.984375 -6.941406 1.453125 -7.734375 C 1.921875 -8.523438 2.5625 -9.144531 3.375 -9.59375 C 4.1875 -10.039062 5.101562 -10.265625 6.125 -10.265625 C 6.90625 -10.265625 7.617188 -10.140625 8.265625 -9.890625 C 8.910156 -9.640625 9.457031 -9.273438 9.90625 -8.796875 L 9.234375 -8.109375 C 8.429688 -8.898438 7.410156 -9.296875 6.171875 -9.296875 C 5.347656 -9.296875 4.601562 -9.113281 3.9375 -8.75 C 3.28125 -8.382812 2.757812 -7.878906 2.375 -7.234375 C 2 -6.597656 1.8125 -5.878906 1.8125 -5.078125 C 1.8125 -4.285156 2 -3.566406 2.375 -2.921875 C 2.757812 -2.285156 3.28125 -1.785156 3.9375 -1.421875 C 4.59375 -1.054688 5.332031 -0.875 6.15625 -0.875 C 7.207031 -0.875 8.097656 -1.132812 8.828125 -1.65625 Z M 8.828125 -5.078125 "/></g></g></g><g fill="#000000" fill-opacity="1"><g transform="translate(251.596974, 192.374987)"><g><path d="M 6.109375 0.09375 C 5.097656 0.09375 4.179688 -0.128906 3.359375 -0.578125 C 2.546875 -1.035156 1.90625 -1.65625 1.4375 -2.4375 C 0.976562 -3.226562 0.75 -4.109375 0.75 -5.078125 C 0.75 -6.054688 0.976562 -6.9375 1.4375 -7.71875 C 1.90625 -8.507812 2.546875 -9.128906 3.359375 -9.578125 C 4.179688 -10.035156 5.097656 -10.265625 6.109375 -10.265625 C 7.109375 -10.265625 8.015625 -10.039062 8.828125 -9.59375 C 9.640625 -9.144531 10.273438 -8.523438 10.734375 -7.734375 C 11.203125 -6.941406 11.4375 -6.054688 11.4375 -5.078125 C 11.4375 -4.109375 11.203125 -3.226562 10.734375 -2.4375 C 10.273438 -1.644531 9.640625 -1.023438 8.828125 -0.578125 C 8.015625 -0.128906 7.109375 0.09375 6.109375 0.09375 Z M 6.109375 -0.875 C 6.910156 -0.875 7.632812 -1.054688 8.28125 -1.421875 C 8.925781 -1.785156 9.429688 -2.285156 9.796875 -2.921875 C 10.171875 -3.566406 10.359375 -4.285156 10.359375 -5.078125 C 10.359375 -5.878906 10.171875 -6.597656 9.796875 -7.234375 C 9.429688 -7.878906 8.925781 -8.382812 8.28125 -8.75 C 7.632812 -9.113281 6.910156 -9.296875 6.109375 -9.296875 C 5.296875 -9.296875 4.5625 -9.113281 3.90625 -8.75 C 3.257812 -8.382812 2.75 -7.878906 2.375 -7.234375 C 2 -6.597656 1.8125 -5.878906 1.8125 -5.078125 C 1.8125 -4.285156 2 -3.566406 2.375 -2.921875 C 2.75 -2.285156 3.257812 -1.785156 3.90625 -1.421875 C 4.5625 -1.054688 5.296875 -0.875 6.109375 -0.875 Z M 7.15625 -12.796875 L 8.53125 -12.796875 L 6.1875 -11 L 5.171875 -11 Z M 7.15625 -12.796875 "/></g></g></g><g fill="#000000" fill-opacity="1"><g transform="translate(268.413517, 192.374987)"><g><path d="M 10.15625 -10.171875 L 10.15625 0 L 9.265625 0 L 2.734375 -8.25 L 2.734375 0 L 1.65625 0 L 1.65625 -10.171875 L 2.546875 -10.171875 L 9.09375 -1.921875 L 9.09375 -10.171875 Z M 10.15625 -10.171875 "/></g></g></g></svg>